<?xml version="1.0" encoding="UTF-8"?>
<!DOCTYPE svg PUBLIC "-//W3C//DTD SVG 1.1//EN" "http://www.w3.org/Graphics/SVG/1.1/DTD/svg11.dtd">
<!-- Creator: CorelDRAW 2020 (64-Bit) -->
<svg xmlns="http://www.w3.org/2000/svg" xml:space="preserve" width="70mm" height="110mm" version="1.1" style="shape-rendering:geometricPrecision; text-rendering:geometricPrecision; image-rendering:optimizeQuality; fill-rule:evenodd; clip-rule:evenodd"
viewBox="0 0 7000 11000"
 xmlns:xlink="http://www.w3.org/1999/xlink"
 xmlns:xodm="http://www.corel.com/coreldraw/odm/2003">
 <defs>
  <style type="text/css">
   <![CDATA[
    .fil52 {fill:#898989;fill-rule:nonzero}
    .fil51 {fill:#727271;fill-rule:nonzero}
    .fil43 {fill:#5B5B5B;fill-rule:nonzero}
    .fil10 {fill:#263B57;fill-rule:nonzero}
    .fil25 {fill:#282D33;fill-rule:nonzero}
    .fil3 {fill:#2A2828;fill-rule:nonzero}
    .fil44 {fill:#2A2928;fill-rule:nonzero}
    .fil7 {fill:#2D548F;fill-rule:nonzero}
    .fil6 {fill:#2E282B;fill-rule:nonzero}
    .fil26 {fill:#2F2A29;fill-rule:nonzero}
    .fil37 {fill:#312F34;fill-rule:nonzero}
    .fil8 {fill:#327CBE;fill-rule:nonzero}
    .fil9 {fill:#33445C;fill-rule:nonzero}
    .fil4 {fill:#343237;fill-rule:nonzero}
    .fil45 {fill:#3A373F;fill-rule:nonzero}
    .fil5 {fill:#3C3A43;fill-rule:nonzero}
    .fil49 {fill:#3C5979;fill-rule:nonzero}
    .fil14 {fill:#3F6284;fill-rule:nonzero}
    .fil41 {fill:#44414A;fill-rule:nonzero}
    .fil50 {fill:#46718C;fill-rule:nonzero}
    .fil15 {fill:#497997;fill-rule:nonzero}
    .fil27 {fill:#4B3B42;fill-rule:nonzero}
    .fil32 {fill:#5488A7;fill-rule:nonzero}
    .fil24 {fill:#5F9DC7;fill-rule:nonzero}
    .fil19 {fill:#6C2925;fill-rule:nonzero}
    .fil21 {fill:#833E24;fill-rule:nonzero}
    .fil17 {fill:#9C6E29;fill-rule:nonzero}
    .fil18 {fill:#A32F2C;fill-rule:nonzero}
    .fil40 {fill:#B9AE9E;fill-rule:nonzero}
    .fil46 {fill:#BE7C27;fill-rule:nonzero}
    .fil16 {fill:#C39125;fill-rule:nonzero}
    .fil33 {fill:#C43A35;fill-rule:nonzero}
    .fil39 {fill:#CE8524;fill-rule:nonzero}
    .fil35 {fill:#CF6C4D;fill-rule:nonzero}
    .fil31 {fill:#D36C4C;fill-rule:nonzero}
    .fil47 {fill:#E0A418;fill-rule:nonzero}
    .fil36 {fill:#E1DED7;fill-rule:nonzero}
    .fil29 {fill:#E44C46;fill-rule:nonzero}
    .fil20 {fill:#E7D8D9;fill-rule:nonzero}
    .fil2 {fill:#EC694C;fill-rule:nonzero}
    .fil28 {fill:#ED7E7E;fill-rule:nonzero}
    .fil48 {fill:#EDB939;fill-rule:nonzero}
    .fil11 {fill:#EEEBDC;fill-rule:nonzero}
    .fil12 {fill:#F2B205;fill-rule:nonzero}
    .fil42 {fill:#F39B97;fill-rule:nonzero}
    .fil34 {fill:#F4E8EA;fill-rule:nonzero}
    .fil0 {fill:#F5A786;fill-rule:nonzero}
    .fil38 {fill:#F5EFF1;fill-rule:nonzero}
    .fil30 {fill:#F6B295;fill-rule:nonzero}
    .fil22 {fill:#F9D1D4;fill-rule:nonzero}
    .fil1 {fill:#FACBA1;fill-rule:nonzero}
    .fil13 {fill:#FDC944;fill-rule:nonzero}
    .fil23 {fill:#FEFEFE;fill-rule:nonzero}
   ]]>
  </style>
 </defs>
 <g id="Layer_x0020_1">
  <metadata id="CorelCorpID_0Corel-Layer"/>
  <g id="_2420360954992">
   <path class="fil0" d="M3274.45 7792.73c-38.07,132.7 20.55,398.3 -28.61,621.96 -49.14,223.64 -378.34,1122.76 -425.28,1309.49 -76.35,303.21 -439.55,194.05 -378.89,-77.68 40.9,-443.29 119.31,-1450.52 285.84,-1956.56l546.94 102.79z"/>
   <path class="fil1" d="M2504.42 9286.15c-13.49,121.85 -29.47,304.79 -29.47,304.79 80.78,-12.84 169.84,31.14 197.19,112.3 47.05,-79.61 111.89,-305.08 111.89,-305.08 -109.01,-6.33 -253.32,-47.06 -279.61,-112.01z"/>
   <path class="fil0" d="M4888.43 7640.24c351.93,525.68 444.26,1503.69 531.8,1890.73 -43.48,225.66 -240.78,213.54 -351.06,106.05 -286.46,-399.01 -617.84,-1248.15 -704.6,-1807.65l523.86 -189.13z"/>
   <path class="fil0" d="M3981.29 4611.17c295.27,161.57 496.12,550.1 565.38,889.94 53.21,260.95 -360.42,701.78 -691.12,764.03 -330.73,62.28 -783.22,-195.65 -887.55,-455.51 -104.32,-259.81 -24.66,-863.25 194.32,-1068.47l818.97 -129.99z"/>
   <path class="fil0" d="M3014.5 5587.62c-238.48,460 -300.98,1760.38 -282.91,2149.34 13.77,296.3 311.59,427.8 486.72,134.58 175.16,-293.29 600.85,-1521.19 582.85,-1776.22l-786.66 -507.7z"/>
   <path class="fil0" d="M4535.54 5555.98c160.8,251.15 420.39,1706.47 395.46,2071.35 -25.03,366.24 -274.81,537.87 -524.53,229.64 -295.96,-365.38 -712.78,-1592.63 -729,-1762.84l858.07 -538.15z"/>
   <path class="fil0" d="M3357.87 2713.7c412.84,195.02 806.39,1828.03 274.07,2078.56 -434.98,204.84 -1795.09,-721.34 -1657.61,-1216.3 67.62,-243.49 380.61,-322.7 418.1,-494.3 134.92,-110.22 287.99,-207.47 444.22,-280.72 217.01,-51.31 395.06,-146.95 521.22,-87.24z"/>
   <path class="fil0" d="M2492.02 2446.46c-8.88,134.13 123.81,311.33 236.79,329.81 146.12,27.03 228.65,-20.02 324.85,-26.64 96.22,-6.63 42.46,140.76 -117.18,265.1 -159.65,124.34 -580.31,266.58 -544.27,114.78 28.36,-119.42 -179.58,-311.05 -255.42,-308.33l355.23 -374.72z"/>
   <path class="fil2" d="M2310.29 2878.68c142.16,44.24 268.77,-39.68 295.56,-32.53 88.64,23.7 239.08,6.47 256.36,-63.83 -188.79,18.4 -281.98,-107.2 -331.23,-182.22l-220.69 278.58z"/>
   <path class="fil0" d="M5420.23 9516.29c28.2,107.28 330.07,427.18 389.86,596.96 68.35,194.34 -98.12,351.57 -188.7,398.48 -90.56,46.88 -354.74,-73.93 -415.14,-202.22 -60.36,-128.29 -166.7,-708.19 -166.7,-708.19l380.68 -85.03z"/>
   <path class="fil1" d="M5322.21 9214.64c18.33,121.3 68.86,303.21 68.86,303.21 -96.86,-23.19 -155.27,53.92 -205.69,132.91 -50.09,-77.68 -126.59,-295.21 -126.59,-295.21 110.56,10.71 239.72,-74.91 263.42,-140.91z"/>
   <path class="fil3" d="M4541.61 5393.79c20.11,116.44 27.48,233.79 23.37,343.42 -10.06,266.1 -516.28,596.5 -852.35,578.68 -336.01,-17.88 -714.59,-375.48 -754.5,-652.61 -11.98,-83.68 -0.32,-193.68 28.97,-310.65l1554.51 41.16z"/>
   <path class="fil3" d="M4535.82 5469.64c359.99,536.24 466.26,1855.28 570.39,2153.03 104.05,297.73 239.86,643.26 155.63,1018.76 -21.05,167.51 -466.93,299.27 -600.22,219.19 -309.61,-132.35 -611.08,-933.89 -854.52,-1681.82 -93.69,-287.87 -234.29,-759.44 -234.29,-759.44l963.01 -949.72z"/>
   <path class="fil3" d="M5232.86 8633.8c75.72,9.27 77.38,69.66 88.01,186.45 10.6,116.65 50.97,176.65 21.59,299.77 -103.51,174.3 -393.41,204.65 -462.35,168.66 -68.86,-35.95 -85.75,-103.49 -125.87,-193 -40.1,-89.52 -130.85,-238.22 -75.29,-277.49l553.91 -184.39z"/>
   <path class="fil3" d="M2922.83 5452.82c-329.26,686.02 -381.14,1738.86 -422.91,2159.97 -41.74,421.15 -102.76,919.84 14.71,1152.81 125.83,148.07 447.29,191.69 584.91,111.81 162.66,-167.14 326.51,-685.08 395.34,-1020.65 68.87,-335.73 302.24,-1212.06 347,-1490.53l-919.05 -913.41z"/>
   <path class="fil3" d="M3116.62 8784.92c64.69,40.43 25.12,115.84 -14.47,226.27 -39.56,110.28 -23.78,159.4 -102.34,258.75 -167.36,114.36 -454.09,17.4 -501.42,-44.27 -47.35,-61.74 -23.03,-127.89 -21.68,-225.88 1.44,-98.12 -7.08,-269.09 59.83,-281.1l580.08 66.23z"/>
   <path class="fil4" d="M3485.72 6817.88c-11.62,451.66 -368.59,1695.4 -522.37,1960.38 -82.61,58.35 -239.81,62.21 -395.67,-14.51 -178.87,-200.66 22.79,-2433.5 305.13,-3081.84 89.33,84.86 261.23,156.15 641.75,208.34 380.5,52.23 1005.89,-198.07 1005.89,-198.07 0,0 -12.44,1.96 117.45,254.46 141.81,304.1 246.99,1434.71 323.21,1631.76 76.12,196.94 305.62,655.77 234.47,1055.4 -51.76,140.05 -349.9,208.33 -503.98,149.74 -298.14,-113.42 -695.91,-1143.3 -941.71,-2036.92 -118.48,-65.22 -525.62,-234.34 -591.6,-322.48 79.94,227.42 329.66,306.2 327.43,393.74z"/>
   <path class="fil5" d="M4124.18 5914.16c83.48,295.2 341.91,568.2 588.72,561.58 164.21,890.09 110.71,1560.15 178.32,1646.13 67.6,86 108.62,-278 108.62,-278 108.36,260.57 171.87,763.92 58.95,856.19 -113.07,92.2 -328.3,18.63 -602.5,-455.47 -410.08,-709.21 -578.75,-1312.83 -608.77,-1456.06 168.7,17.63 317.32,-98.37 317.32,-98.37 -359.82,-3.84 -1057.57,-218.47 -1161.93,-586.29 71.57,-108.99 104.36,-263.83 104.36,-263.83 265.19,105.29 694.46,160.59 1016.91,74.12z"/>
   <path class="fil3" d="M4268.64 5976.44c91.07,303.96 368.05,357.6 500.94,298.65 13.42,-144.79 -29.08,-478.99 -242.83,-510.75 -213.74,-31.79 -360.17,0.15 -258.11,212.1z"/>
   <path class="fil4" d="M4327.85 6000.03c-14.43,57.61 174.37,244.42 354.28,204.17 16.09,-39.22 -12.16,-206.61 -68.87,-229.89 -56.75,-23.19 -263.46,-62.26 -285.41,25.72z"/>
   <path class="fil4" d="M5213.56 8715.55c75.55,-26.91 68.61,70.35 76.89,171.69 8.28,101.16 34.04,140.18 27.35,214.91 -57.73,144.9 -290.87,183.24 -351.61,154.08 -60.76,-29.11 -94.87,-155.82 -132.2,-240.34 -37.35,-84.56 -75.33,-141.23 -17.56,-165.48 61.95,15.96 314.05,-27.3 397.13,-134.86z"/>
   <path class="fil4" d="M2538.27 8790.12c-54.43,-16.38 -43.68,59.4 -40.7,160.88 2.79,101.53 -20.53,170.1 -5.81,243.42 66.64,114.36 311.12,123.59 368.32,88.11 57.25,-35.66 77.25,-165.37 105.18,-253.44 27.92,-88.04 64.01,-171.58 3.92,-189.38 -73.76,29.15 -332.85,34.29 -430.91,-49.59z"/>
   <path class="fil5" d="M4727.95 6335.13c-45.32,161.82 -377.23,44.7 -456.24,-243.1 79.91,179.44 352.47,265.95 456.24,243.1z"/>
   <path class="fil3" d="M3052.51 5751.76c-78.48,235.41 -245.18,361.32 -331.38,320.31 25.66,-127.24 93.91,-411.61 156.87,-471.67 79.67,63.83 130.65,108.79 174.51,151.36z"/>
   <path class="fil4" d="M2979.9 5754.08c30.3,48.89 -105.14,283.37 -212.1,262 -12.41,-38.38 39.82,-315.54 93.75,-333.23 25.75,-8.47 99.39,40.66 118.35,71.23z"/>
   <path class="fil5" d="M2732.18 6125.67c32.45,158.57 296.95,-26.04 298.92,-275.86 -87.97,182.51 -208.4,295.54 -298.92,275.86z"/>
   <path class="fil5" d="M3037.51 6042.73c-65.85,149.31 -211.35,206.42 -289.11,206.75 -196.75,810.79 -267.91,2388.48 -119.17,2506.61 148.74,118.06 343.26,-365.12 513.69,-1059.21 170.33,-694.08 191.81,-860.85 159.68,-899.12 -32.2,-38.23 -228.79,-343.25 -195.33,-570.2l-69.76 -184.83z"/>
   <path class="fil5" d="M5201.7 8756.85c21.29,-25.82 25.42,96.79 38,153.02 12.55,56.36 59.44,185.56 38.56,229.29 -20.8,43.91 -118.37,112.48 -218.61,105.32 -78.12,-35.01 -88.46,-280.57 -124.56,-316.81 -36.05,-36.05 -60.58,-77.72 -7.92,-77.22 52.69,0.62 225.3,-33.81 274.53,-93.6z"/>
   <path class="fil5" d="M2844.4 8868.69c64.23,-6.12 -22.2,97.68 -37.07,153.38 -14.82,55.71 -31.01,198.21 -67.24,237.09 -36.19,38.77 -201.81,-3.76 -227.56,-60.55 -25.71,-56.71 31.69,-252.64 16.32,-301.32 -15.28,-48.79 -17.58,-97.4 28.75,-72.23 95.89,52.35 209.62,50.97 286.8,43.63z"/>
   <path class="fil6" d="M5863.58 10248.35c108.58,100.32 87.79,488.13 -76.13,550.63 -149.6,57.08 -318.29,-22.31 -422.96,-114.69 -159.07,-140.4 -225.34,-336.01 -236.51,-363.64 -29.22,-72.2 -101.81,-133.25 -135.45,-221.71 -24.31,-63.84 -30.2,-388.65 -5.39,-412.58l876.44 561.99z"/>
   <path class="fil5" d="M5896.46 10618.46c-30.75,89.23 -179.69,190.21 -406.57,62.9 -226.92,-127.25 -280.89,-352.69 -309.53,-439.67 -5.98,186.93 108.61,385.67 274.26,490.89 165.65,105.21 402.34,134.61 441.84,-114.12z"/>
   <path class="fil6" d="M5211.79 9720.42c-53.64,-104.48 194.22,-262.58 256.58,-128.43 62.24,134.18 460.24,634.36 287.9,724.35 -172.23,89.99 -428.78,-370.51 -544.48,-595.92z"/>
   <path class="fil5" d="M5392.09 9553.04c-21.67,-16.09 -149.49,33.12 -129.02,79.64 20.37,46.47 205.52,-22.89 129.02,-79.64z"/>
   <path class="fil5" d="M5450.02 9698.03c-11.53,54.29 99.72,230.44 174.31,335.22 74.65,104.74 121.95,199.36 64.38,220.13 -89.52,32.29 -253.76,-326.5 -296.62,-432.77 -42.83,-106.34 47.42,-132.96 57.93,-122.58z"/>
   <path class="fil7" d="M5000.19 9533.72c44.21,67.13 104.43,155.2 176.87,163.8 69.3,8.26 124.02,3.62 167.46,75.17 43.41,71.5 205.51,405.28 253.44,464.55 51.22,71.94 157.26,22.61 137.15,-54.11 -15.12,-57.84 -237.77,-406.07 -270.61,-459.38 -23.92,-38.8 -64.78,-123.62 -47.28,-175.39 -4.08,-27.55 -12.22,-70.19 -25.13,-130.67 40.76,-27.24 78.69,24.2 105.17,121.75 26.44,97.43 254.49,382.37 363.79,531.5 109.27,149.23 133.25,490.09 -36.6,612.34 -101.63,73.16 -405.27,50.27 -556.57,-256.26 -115.99,-235.03 -203.81,-591.47 -260.52,-660.73 -69.02,-84.21 -66.99,-220.23 -7.17,-232.57z"/>
   <path class="fil8" d="M5011.95 9662.45c31.68,108.65 173.32,163.98 219.29,161.74 46,-2.24 100.98,37.33 35.41,54.47 -65.65,17.15 -115.99,6.11 -115.99,6.11 88.07,156.41 168.61,395.87 233.65,500.01 76.64,122.9 285.92,226.59 431.82,150.03 148.58,-77.95 96.57,-346.21 32.58,-451.72 -71.68,-118.2 -291.33,-360.72 -302.65,-388.45 -11.94,26.76 -26.23,32.48 -44.31,6.5 -10.49,-15.03 -2.53,-76.63 -9.8,-136.5 -7.16,-59.89 -30.1,-126.84 -60.52,-131.69 -29.51,-4.77 10.86,64.35 7.64,111.84 -3.22,48.03 33.16,156.78 90.17,249.89 38.01,62.17 145.72,230 215.97,365.34 49,94.51 -98.76,186.63 -166.39,81.09 -44.15,-68.83 -110.53,-193.29 -149.56,-269.85 -87.66,-172.39 -118.7,-266.75 -198.02,-254.96 -117.43,17.44 -172.78,-64.56 -195.71,-117.94 -23.01,-53.39 -35.88,21.91 -23.58,64.09z"/>
   <path class="fil9" d="M5480.52 9632.36c-32.23,11.9 -20.8,61.73 19.72,52.51 40.5,-9.22 19.41,-66.98 -19.72,-52.51z"/>
   <path class="fil10" d="M5769.14 10130.65c-32.18,11.9 -20.76,61.75 19.76,52.48 40.5,-9.25 19.41,-66.98 -19.76,-52.48z"/>
   <path class="fil10" d="M5679.91 9969.05c-32.19,11.93 -20.76,61.67 19.75,52.48 40.59,-9.22 19.49,-67.01 -19.75,-52.48z"/>
   <path class="fil10" d="M5582.69 9816.13c-32.23,12.01 -20.76,61.73 19.76,52.55 40.5,-9.26 19.42,-67.06 -19.76,-52.55z"/>
   <path class="fil10" d="M5283.03 9753.7c-32.87,10.27 -23.9,60.55 16.97,53.39 40.98,-7.06 22.89,-65.79 -16.97,-53.39z"/>
   <path class="fil10" d="M5545.55 10254.02c-32.84,10.2 -23.87,60.51 17,53.36 40.98,-7.09 22.82,-65.87 -17,-53.36z"/>
   <path class="fil10" d="M5449.66 10091.23c-32.84,10.27 -23.97,60.59 17,53.38 40.95,-7.12 22.82,-65.9 -17,-53.38z"/>
   <path class="fil10" d="M5367.06 9923.33c-32.85,10.23 -23.92,60.51 17.03,53.39 40.94,-7.09 22.82,-65.9 -17.03,-53.39z"/>
   <path class="fil11" d="M5306.55 9758c64.38,55.01 244.78,70.03 282.98,66.91 25.14,12.78 1.96,34.22 1.96,34.22 -56.73,16.9 -199.69,12.77 -298.44,-63.34 -21.69,-24.04 -2.64,-49.33 13.5,-37.79z"/>
   <path class="fil11" d="M5474.87 9675.54c6.66,83.48 -84.78,233.4 -108.97,261.43 -4.35,27.3 25.9,22.24 25.9,22.24 45.78,-34.14 124.42,-148.18 120.76,-271.41 -6.58,-31.43 -37.54,-31.9 -37.69,-12.26z"/>
   <path class="fil11" d="M5392.3 9924.19c66.04,52.93 249.58,61.29 288.41,56.65 25.61,11.91 2.46,34.54 2.46,34.54 -57.36,19.1 -202.72,20.4 -304.11,-52.55 -22.31,-23.44 -3.36,-49.7 13.24,-38.64z"/>
   <path class="fil11" d="M5562.05 9834.5c7.99,83.95 -82.83,238.76 -107.1,267.9 -3.91,27.68 26.72,21.53 26.72,21.53 46.04,-36.21 124.35,-154.3 118.9,-278.5 -7.13,-31.36 -38.64,-30.71 -38.52,-10.93z"/>
   <path class="fil11" d="M5482.9 10090.9c65.51,49.77 249.17,50.79 288.1,44.81 25.53,10.85 1.98,34.08 1.98,34.08 -57.84,21.01 -203.34,27.95 -303.85,-40.19 -22,-22.24 -2.64,-49 13.77,-38.7z"/>
   <path class="fil11" d="M5654.24 9995.66c6.83,82.69 -86.31,239.27 -111,269 -4.45,27.49 26.37,20.15 26.37,20.15 46.65,-37.51 126.73,-157.3 123.07,-279.81 -6.79,-30.82 -38.3,-28.9 -38.44,-9.34z"/>
   <path class="fil11" d="M5391.5 9693.26c-51.82,-38.41 -207.81,-66.62 -235.38,34.43 -27.57,101.13 33.42,189.35 101.03,171.22 67.7,-18.07 125.79,-166.33 134.94,-181.6 -0.59,-24.05 -12.37,-23.22 -35.13,-8.21 -22.85,14.9 -81.3,157.56 -116.13,154.52 -46.76,-4.09 -56.93,-110.39 -31.29,-144.89 25.75,-34.59 145.9,-17.47 160.99,-3.29l20.97 -22.18z"/>
   <path class="fil11" d="M5403.44 9692.03c34.47,-14.79 283.78,22.82 399.78,111.65 9.22,18.73 -4.16,61.82 -21.45,44.35 -17.26,-17.43 -265.51,-139.04 -389.68,-130.72l11.35 -25.28z"/>
   <path class="fil11" d="M5369.99 9687.84c1.01,-79.9 142.03,-183.49 227.76,-109.37 85.71,73.99 52.58,148.72 -20.45,120.29 -44.45,-17.29 -89.8,-7.66 -125.17,1.99 -22.75,6.18 -41.38,12.41 -53.07,11.43 -29.87,-2.53 -13.51,-21.52 22.94,-46.37 34.57,-23.66 87.96,-16.2 129.37,-8.79 29.7,5.31 53.21,10.63 59.29,4.53 14.68,-14.55 -44.5,-81.28 -110.97,-68.69 -47.85,8.97 -92.16,60.29 -92.63,104.09l-37.07 -9.11z"/>
   <path class="fil11" d="M5376.36 9719.42c12.61,34.17 2.35,163.26 -160.56,266.12 -22.97,13.64 -4.92,50.57 26.91,36.65 31.71,-13.9 222.55,-191.81 162.62,-310.12 -13.83,-18.81 -28.97,7.35 -28.97,7.35z"/>
   <path class="fil11" d="M5385.47 9661.26c-28.22,2.16 -75.06,75.01 -17.59,73.67 57.45,-1.34 68.26,-77.62 17.59,-73.67z"/>
   <path class="fil6" d="M1867.6 10257.28c-125.86,88.97 -50.19,334.93 15.47,398.9 127.05,123.85 375.17,80.7 538.28,-64.48 158.45,-141.02 221.27,-279.08 263.72,-269.46 42.5,9.66 156.48,-104.67 180.92,-151.87 24.42,-47.28 42.89,-232.21 24.54,-243.67l-1022.93 330.58z"/>
   <path class="fil5" d="M1819.32 10503.99c25.18,76.14 156.94,203.49 400.39,111.62 243.41,-91.92 346.24,-295.94 387.58,-377.68 -22.09,185.72 -176.41,365.63 -355.92,444.87 -179.54,79.25 -406.87,41.38 -432.05,-178.81z"/>
   <path class="fil6" d="M2647.55 9795.77c61.56,-89.99 -173.46,-245.38 -246.03,-129.27 -72.54,116.03 -508.09,535.91 -343.3,630.42 164.76,94.44 456.46,-307 589.33,-501.15z"/>
   <path class="fil5" d="M2426.92 9728.45c3.24,55.42 -133.1,212.96 -222.55,305.38 -89.45,92.34 -128.62,168.72 -78.36,203.6 89.94,62.46 281.55,-280.42 339.8,-379.13 58.25,-98.71 -26.98,-138.56 -38.89,-129.85z"/>
   <path class="fil5" d="M2495.17 9637.59c23.86,-12.65 138.31,43.48 111.18,86.41 -27.13,42.91 -195.3,-41.73 -111.18,-86.41z"/>
   <path class="fil7" d="M2887.58 9775.18c24.64,-64.95 8.86,-136.86 -41.02,-154.15 -2.88,69.38 -65.34,165.12 -162.85,163.15 -69.8,-1.4 -123.99,-6.36 -172.78,54.73 -48.82,61.1 -236.36,349.28 -288.71,398.98 -56.63,60.88 -158.52,8.18 -132.54,-59.39 19.57,-50.92 268.55,-347.51 305.39,-392.97 26.88,-33.13 96.15,-145.73 79.88,-194.59 -8.17,-32.2 -90.42,-18.08 -124.42,67.75 -33.97,85.79 -353.97,331.55 -474.47,457.49 -120.58,126.02 -122.45,375.58 34.28,474.33 127.02,80 429.75,40.54 604.34,-223.96 35.18,-53.35 70.33,-110.97 104.22,-168.01 77.23,-106.99 249.02,-170.43 270.2,-236.8 16.03,-50.23 5.63,-139.86 -1.52,-186.56z"/>
   <path class="fil8" d="M2850.99 9765.39c-40.05,95.45 -185.49,134.32 -231.15,128.72 -45.66,-5.54 -103.58,25.78 -39.54,46.32 64.13,20.55 115.14,14.55 115.14,14.55 -99.91,134.09 -234.38,303.89 -307.27,392.72 -102.37,124.86 -372.76,176.87 -480.49,100.55 -102.76,-72.8 -66.96,-243.89 13.49,-344.58 80.63,-101.05 381.46,-326.63 394.96,-350.76 9.72,25.06 33.57,44.19 53.61,22.2 11.62,-12.76 0.19,-89 12.03,-142.4 11.87,-53.42 93.58,-42.2 52.24,-14.43 -47.93,32.19 -44.83,146.63 -108.91,226.13 -42.72,53.03 -163.18,195.97 -243.63,312.5 -56.21,81.34 83.9,175.85 159.54,85.93 49.37,-58.58 125.2,-165.61 169.96,-231.58 100.82,-148.51 139.1,-231.16 217.23,-214.41 115.67,24.88 177.27,-44.7 204.25,-91.07 27.1,-46.33 34.12,22.53 18.54,59.61z"/>
   <path class="fil9" d="M2386.21 9701.9c31.25,13.25 15.99,57.26 -23.66,45.77 -39.72,-11.44 -14.18,-61.86 23.66,-45.77z"/>
   <path class="fil9" d="M2059.81 10128.56c31.19,13.23 15.94,57.25 -23.68,45.75 -39.69,-11.51 -14.18,-61.85 23.68,-45.75z"/>
   <path class="fil10" d="M2161.34 9989.85c31.17,13.27 15.9,57.21 -23.82,45.75 -39.65,-11.46 -14.17,-61.85 23.82,-45.75z"/>
   <path class="fil10" d="M2270.08 9859.57c31.22,13.31 15.93,57.28 -23.74,45.79 -39.62,-11.44 -14.18,-61.89 23.74,-45.79z"/>
   <path class="fil10" d="M2573.68 9826.62c31.95,11.75 19.14,56.42 -21.08,46.73 -40.31,-9.55 -17.67,-61.06 21.08,-46.73z"/>
   <path class="fil10" d="M2273.96 10247.37c31.95,11.75 19.11,68.14 -21.08,58.49 -40.3,-9.59 -17.64,-72.89 21.08,-58.49z"/>
   <path class="fil10" d="M2373.17 10117.23c31.94,11.76 19.16,56.43 -21.13,46.73 -40.22,-9.58 -17.63,-61.16 21.13,-46.73z"/>
   <path class="fil10" d="M2477.17 9967.81c31.96,11.8 19.15,56.4 -21.11,46.84 -40.27,-9.61 -17.67,-61.19 21.11,-46.84z"/>
   <path class="fil11" d="M2549.86 9828.65c-68.44,44.51 -249.41,44.04 -287.27,38.33 -26.01,9.55 -4.6,30.67 -4.6,30.67 55.19,19.61 198.1,26.98 302.41,-33.93 23.5,-19.96 6.44,-44.23 -10.54,-35.07z"/>
   <path class="fil11" d="M2388.53 9741.22c-13.1,74.73 66.34,216.94 88.36,244.14 2.13,24.89 -27.63,17.98 -27.63,17.98 -42.96,-34.33 -112.48,-143.2 -99.31,-253.97 9,-27.82 39.94,-25.84 38.58,-8.15z"/>
   <path class="fil11" d="M2451.56 9971.77c-70.01,42.56 -253.59,35.84 -291.94,28.64 -26.45,8.79 -5.11,30.92 -5.11,30.92 55.7,21.67 200.49,34.12 307.2,-23.72 24.07,-19.39 7.23,-44.56 -10.15,-35.84z"/>
   <path class="fil11" d="M2289.25 9877.68c-14.5,75.1 64.05,221.65 85.96,249.79 1.81,25.24 -28.35,17.32 -28.35,17.32 -43.03,-36.16 -111.9,-148.68 -96.82,-260.19 9.53,-27.78 40.87,-24.71 39.21,-6.92z"/>
   <path class="fil11" d="M2348.23 10114.95c-69.16,39.75 -252.3,26.45 -290.65,18.02 -26.26,7.81 -4.61,30.56 -4.61,30.56 56.03,23.44 200.52,40.98 306.02,-12.62 23.67,-18.41 6.4,-43.95 -10.76,-35.96z"/>
   <path class="fil11" d="M2184.83 10015.82c-13.2,74 67.47,222.33 89.78,251.04 2.34,25.1 -27.85,16.14 -27.85,16.14 -43.61,-37.47 -114.1,-151.6 -100.96,-261.72 9.14,-27.24 40.45,-23.11 39.03,-5.46z"/>
   <path class="fil11" d="M2470.24 9763.68c54.66,-30.59 212.32,-43.94 231.96,49.3 19.64,93.32 -48.04,168.04 -114.05,146.49 -66,-21.57 -112.4,-159.69 -120.4,-174.16 2.49,-21.63 14.18,-19.92 35.73,-4.71 21.55,15.23 68.76,148.34 103.74,148.3 46.94,-0.04 65.34,-95.01 42.42,-128.14 -22.96,-33.17 -144.11,-27.13 -160.22,-15.45l-19.18 -21.63z"/>
   <path class="fil11" d="M2458.4 9761.62c-33.17,-15.96 -284.64,-1.45 -407.15,69.62 -10.62,16.17 -0.66,55.99 17.91,41.6 18.61,-14.36 275.5,-104.67 398.59,-87.53l-9.35 -23.69z"/>
   <path class="fil11" d="M2492.07 9760.47c5.23,-72.09 -127.29,-176.37 -218.51,-116.29 -91.17,60.04 -63.93,129.96 11.05,110.03 74.98,-19.93 146.7,25.83 176.63,25.93 29.94,0.07 15.14,-18.38 -19.21,-43.55 -56.1,-41.19 -174.47,-4.23 -187.82,-18.52 -13.49,-14.21 50.69,-69.72 115.97,-53.31 47.02,11.82 87.21,61.53 84.3,101.06l37.59 -5.35z"/>
   <path class="fil11" d="M2483.29 9788.45c-15.25,29.82 -15,146.93 139.4,252.28 21.87,14.08 0.97,45.94 -29.62,30.93 -30.58,-14.9 -206.99,-190.14 -138.05,-292.1 15.22,-15.88 28.27,8.89 28.27,8.89z"/>
   <path class="fil11" d="M2478.77 9735.29c27.92,4.16 68.94,73.42 11.76,67.78 -57.17,-5.64 -62,-75.27 -11.76,-67.78z"/>
   <path class="fil12" d="M951.86 717.49c-22.02,-116.24 152.4,-206.2 216.55,-98.5 63.99,107.49 -197.28,177.13 -216.55,98.5z"/>
   <path class="fil13" d="M999.48 601.92c-40.97,29.51 -40.97,99.31 38.78,57.12 79.61,-42.47 40.68,-114.18 -38.78,-57.12z"/>
   <path class="fil14" d="M2410.67 1178.14c0,0 767.59,44.54 893.85,357.49 72.18,179.42 -246.9,140.03 -727.16,800.92 -994.95,28.78 -963.98,-957.95 -963.98,-957.95l797.29 -200.46z"/>
   <path class="fil15" d="M2532.16 1217.15c377.9,-10.74 692.67,168.67 741.98,306.78 -86.74,-90.92 -570.03,-302.36 -741.98,-306.78z"/>
   <path class="fil16" d="M2489.67 1306.08c345.98,-12.58 696.72,163.82 750.38,268.94 53.69,105.06 -386.08,275.34 -615.72,676.49 -229.57,401.23 -314.76,-703.51 -293.28,-727.95l158.62 -217.48z"/>
   <path class="fil17" d="M2497.67 1297.47c696.18,51.9 634.15,424.05 162.53,759.54 -471.58,335.49 -273.26,-391.73 -273.26,-391.73l110.73 -367.81z"/>
   <path class="fil1" d="M1033.18 2551.88c-35.57,31.65 -210.64,-3.68 -229.56,136.35 -11.7,85.76 244.74,265.1 399.69,149.07 64.68,-48.43 13.46,-159.23 11.24,-161.66l-181.37 -123.76z"/>
   <path class="fil0" d="M1093.97 2701.84c-92.69,-76.04 -201.85,-29 -244.12,-3.08 100.58,4.33 270.32,116.61 289.83,148.34l-45.71 -145.26z"/>
   <path class="fil0" d="M641.68 2026.16c37.05,403.44 379.2,713.75 441.47,800.25 324.35,450.33 933.64,396.3 1161.2,191.26 451.8,-407.33 558.17,-1136.1 178.32,-1561.69 -837.64,-938.21 -1890.87,-139.52 -1780.99,570.18z"/>
   <path class="fil0" d="M2435.28 1694.29c19.07,-80.4 73.41,-367.37 242.65,-343.37 129.9,18.33 201.42,369.35 65.59,511.52 -69.91,73.17 -193.02,2.06 -195.37,-0.74l-112.87 -167.41z"/>
   <path class="fil1" d="M2049.17 1541.82c301.68,211.88 716.63,987.31 78.59,1481.75 -265.72,205.69 -856.69,130.31 -1075.14,-279.1 -37.49,-70.23 -148.61,-124.86 -244,-375.09 36.29,-54.84 52.62,-165.72 52.62,-165.72 122.5,172.64 166.61,141.79 208.43,112.79 41.89,-29.08 66.41,-285.57 24.57,-403.66 181.32,106.68 320.4,32.69 366.85,-23.56 46.33,-56.17 -11.42,-154.6 -92.27,-231.9 192.24,-140.39 586.28,-181.7 680.35,-115.51z"/>
   <path class="fil0" d="M2075.69 2346.04c67.96,-7.51 42.17,62.95 -25.76,106.31 11.1,-35.48 -52.43,-97.54 25.76,-106.31z"/>
   <path class="fil0" d="M1471.95 2881.18c9.58,67.81 51.64,45.06 91.35,-25.03 -35.05,12.96 -100.17,-36.73 -91.35,25.03z"/>
   <path class="fil18" d="M1550.95 2867.78c-6.33,8.03 66.4,9.35 165.03,36.88 50.21,14.29 101.15,-0.28 157.45,-30.39 104.38,-55.96 179.42,-168.52 181.81,-254.28 1.53,-61.55 8.24,-171.03 17.4,-207.25 2.83,-11.05 -6.36,6.7 -18.43,12.29 -124.31,78.63 -276.02,296.26 -503.26,442.75z"/>
   <path class="fil19" d="M1712.23 2788.87c16.71,51.01 239.23,27.9 294.05,-83.42 54.76,-111.38 12.38,-212.61 -18.31,-218.65 -38.73,49.48 -290.4,257.3 -275.74,302.07z"/>
   <path class="fil20" d="M1637.13 2802.56c34.02,25.47 101.6,23.92 204.77,-74.21 123.77,-117.87 145.46,-180.44 162.69,-250.9 -103.8,75.76 -250.63,230.07 -367.46,325.11z"/>
   <path class="fil21" d="M1373.72 2494.53c-9.5,-66.55 -281.74,-298.01 -432.82,-153.49 -140.5,134.5 22,341.29 102.35,381.64 155.04,78.04 349.37,-98.06 330.47,-228.15z"/>
   <path class="fil22" d="M1377.69 2500.35c-9.02,-62.58 -261.47,-276 -405.97,-142.97 -126.37,116.24 23.37,318.92 99.22,356.09 150.09,73.18 324.42,-90.76 306.75,-213.12z"/>
   <path class="fil23" d="M1377.69 2500.35c-8.53,-59.19 -242.26,-277.11 -361.61,-161.97 -133.74,128.91 7.07,347.86 94.66,379.52 121.01,43.94 283.64,-101.9 266.95,-217.55z"/>
   <path class="fil24" d="M1058.11 2340c-171.1,105.57 34.24,394.68 148.94,378.34 73.05,-20.76 171.22,-105.65 165.42,-178.31 -6.14,-75.02 -196.13,-272.91 -314.36,-200.03z"/>
   <path class="fil21" d="M794.09 2043.25c28.45,-26.66 173.01,2.12 142.03,20.9 -151.14,91.51 -149.79,175.29 -168.5,167.27 -38.45,-16.27 -9.36,-154.31 26.47,-188.17z"/>
   <path class="fil21" d="M1535.71 1445.01c-44.56,20.98 -89.96,137.6 -71.96,159.68 17.95,21.94 104.6,-117.8 362.29,-141.64 -52.75,-60.37 -243.97,-39.91 -290.33,-18.04z"/>
   <path class="fil25" d="M1105.38 2394.63c-151.2,115.95 67.87,390.19 194.72,262.24 126.79,-128.03 -96.84,-337.33 -194.72,-262.24z"/>
   <path class="fil23" d="M1018.82 2620.72c-6.37,-48.59 105.44,-68.84 121.79,-31.95 16.38,36.66 -112.31,105.64 -121.79,31.95z"/>
   <path class="fil21" d="M1754.06 2206.02c-70.73,-17.45 -271.8,-337.55 -69.04,-516.59 180.47,-159.39 443.51,56.76 452.03,158.58 15.52,184.86 -244.61,391.95 -382.99,358.01z"/>
   <path class="fil22" d="M1751.65 2206.97c-64.06,-15.82 -244.26,-302.72 -61.35,-465.64 183.11,-162.7 400.29,49.4 408,141.57 14.08,167.34 -221.4,354.77 -346.65,324.07z"/>
   <path class="fil23" d="M1792.94 2186.07c-81.75,-11.49 -250.05,-281.08 -81.06,-431.27 168.89,-150.26 361.51,60.37 368.55,145.47 12.98,154.45 -169.51,302.65 -287.49,285.8z"/>
   <path class="fil24" d="M1748.09 1764.81c-143.98,109.62 8.56,433.18 148.11,407.86 104.28,-43.96 207.02,-177.57 199.75,-234.55 -7.31,-57.06 -191.56,-292.43 -347.86,-173.31z"/>
   <path class="fil25" d="M1819.48 1812.15c-137.32,75.16 28.31,408.52 187.71,290.21 159.3,-118.38 -46.2,-367.66 -187.71,-290.21z"/>
   <path class="fil23" d="M1718.5 2077.7c-6.77,-51.61 112.22,-73.11 129.62,-33.94 17.35,39.02 -119.46,112.34 -129.62,33.94z"/>
   <path class="fil23" d="M1965.81 1924.56c-36.47,17.31 7.35,71.64 36.05,58.31 28.66,-13.47 0.49,-75.75 -36.05,-58.31z"/>
   <path class="fil23" d="M1251.09 2501.82c-36.45,17.37 7.22,71.71 35.88,58.23 28.66,-13.54 0.59,-75.68 -35.88,-58.23z"/>
   <path class="fil26" d="M1795.02 1315.95c281.64,-28.05 550.63,301.91 649.4,543.32 69.13,-28.05 80.83,-77.08 80.83,-77.08 -72.51,-229.18 41.79,-402.7 41.79,-402.7 3.24,-142.83 -136.57,-229.41 -292.95,-291.76l-479.07 228.22z"/>
   <path class="fil27" d="M1907.37 1323.09c211.41,42.71 422.49,348.74 453.79,508.79 42.8,-120.14 -10.5,-316.49 -64.19,-385.84 85.22,87.09 104.98,165.43 104.98,165.43 35.86,-112.79 3.65,-259 3.65,-259 -253.11,-81.94 -498.23,-29.38 -498.23,-29.38z"/>
   <path class="fil26" d="M796.53 1945.26c-261.17,213.64 -239.63,580.34 -150.26,596.98 89.47,16.78 173.4,-559.66 234.89,-735.61 -161.01,404.98 61.27,465.72 119.29,444.3 58.09,-21.5 -18.16,-535.66 -18.16,-535.66 0,0 320.74,208.2 426.18,134.35 105.47,-73.99 -137.16,-262.38 -226.35,-286.38 300.6,-213.28 37.17,-646.01 -342.33,-384.66 -379.55,261.43 -482.1,852.07 -161.04,761.01l117.78 5.67z"/>
   <path class="fil27" d="M1120.42 1255.07c-59.49,100.57 -47.5,247 -47.5,247 -100.57,-39.25 -129,-168.52 -129,-168.52 -53.52,113.01 56.48,277.76 56.48,277.76 -42.66,62.44 -177.41,188.55 -177.41,188.55 -142.42,-142.24 -103.71,-195.47 -107.2,-239.34 -59.13,104.54 23.69,267.68 44.1,352.35 -183.43,-147.17 -245.11,-447.4 98.83,-624.16 -53.9,103.37 -38.27,209.75 -38.27,209.75 11.91,-143.12 90.07,-266.51 218.02,-285.13l81.95 41.74z"/>
   <path class="fil27" d="M1097.81 1704.44c130.31,111.98 288.3,147.32 325.44,91.29 -10.08,-90.92 -140.91,-179.48 -246.7,-182.06l-78.74 90.77z"/>
   <path class="fil26" d="M868.76 1994.43c-85.13,212.76 -18.53,343.88 17.26,356.1 -106.13,-3.9 -215.72,-112.86 -69.45,-377.6l52.19 21.5z"/>
   <path class="fil26" d="M1027.06 1720.05c-63.2,125.52 104.34,307.81 191.51,346.02 -127.63,-5.75 -286.61,-122.43 -223.95,-340.12l32.44 -5.9z"/>
   <path class="fil28" d="M1913.8 2819.93c87.68,-77.52 141.57,-188.83 145.99,-294.18 4.46,83.78 5.87,237.28 -98.48,328.34 -104.24,91.14 -245.89,66.11 -311.69,34.67 35.32,3.32 176.48,8.55 264.18,-68.83z"/>
   <path class="fil29" d="M1725.94 2692.87c47.43,-18.41 25.87,-29.23 82.65,-79.37 42.33,-37.39 163.97,-117.79 240.66,-197.15 -52.25,94.52 -158.84,200.76 -258.43,293.01 -85.42,79.29 -185.89,133.02 -239.87,158.42 68.98,-57.12 115.34,-151.65 174.99,-174.91z"/>
   <path class="fil30" d="M1564.6 2531.63c-21.38,32.99 -10.82,48.15 -31.77,85.26 -28.17,49.4 23.97,50.72 70.19,16.56 46.12,-34.16 94.53,-70.45 133.8,-112.42 39.3,-42.03 -3.66,-62.28 -45.37,-42.4 -31.16,14.87 -101.57,14.06 -126.85,53z"/>
   <path class="fil31" d="M1580.05 2594.95c-14.83,-2.43 -54.82,47.11 -41.11,52.19 23.74,8.55 71.6,-47.04 41.11,-52.19z"/>
   <path class="fil30" d="M1680.57 2392.5c67.09,-10.02 130.76,52.49 62.3,120.29 -19.28,23.41 -15.48,-20.69 -15.48,-20.69 24.87,-42.48 7.84,-64.93 -46.82,-99.6z"/>
   <path class="fil31" d="M1670.48 2520c0.79,-17.81 64.44,-48.29 66.67,-32.53 3.45,24.81 -68.11,63.23 -66.67,32.53z"/>
   <path class="fil2" d="M2553.04 1700.1c11.68,-173.16 99.03,-279.98 176.61,-265.47 -52.9,65.74 -113.03,221.6 -90.43,258.26 71.08,16.71 40.37,100.19 9.25,119.34 28.04,-118.53 -95.43,-112.13 -95.43,-112.13z"/>
   <path class="fil1" d="M2514.52 1632c-24.99,-124.49 5.09,-269.52 132.71,-282.48 47.87,4.71 61.12,35.34 61.12,35.34 -48.93,-11.56 -149.41,102.26 -193.83,247.14z"/>
   <path class="fil27" d="M654.54 2186.07c-102.04,147.38 -64.66,326.13 8.33,326.05 10.36,-226.38 63.82,-392.9 104.86,-455.33 -57.68,133.03 17.41,239.93 71.04,243.76 -71.15,-69.13 -49.11,-232.71 -19.33,-306.19 9.84,155.93 89.64,223.36 144.43,217.4 -17.18,-87.16 -22.91,-433.77 -22.91,-433.77 -78.02,88.93 -48.4,291.54 -48.4,291.54 -39.73,-90.85 -60.12,-183.1 -60.12,-183.1 -48.88,73.62 -177.9,299.64 -177.9,299.64z"/>
   <path class="fil14" d="M1209.63 1456.13c-51.04,43.36 -247.91,119.56 -498.25,376.64 -70.84,72.66 -230.71,-235.73 55.86,-459.98 262.66,-205.7 493.64,40.13 442.39,83.34zm-292.56 -733.11c-816.32,484.64 -465.21,1431.69 -311.76,1522.53 311.31,-631.07 1506.05,-1136.99 1975.95,-939.9 -206.12,-484.64 -847.83,-1067.12 -1664.19,-582.63z"/>
   <path class="fil15" d="M991.14 693.35c441.65,-227.05 891.35,85.77 1077.68,404.25 -198.68,2.13 -666.54,224.17 -821.02,314.43 -145.17,-237.2 -405.54,-149.08 -513.57,-67.29 -108.16,81.79 -235.96,338.94 -98.01,525.86 -76.42,63.47 -126.76,189.28 -126.76,189.28 -208.96,-447.54 -162.13,-1035.47 481.68,-1366.53z"/>
   <path class="fil12" d="M1186.52 1472.62c-183.75,63.67 -447.28,203.77 -483.78,289.17 -17.32,40.49 99.37,144.37 140.15,110.43 152.02,-135.97 405.08,-256.12 405.08,-256.12 28.11,-16.86 11.46,-53.52 11.46,-53.52l-72.91 -89.96z"/>
   <path class="fil13" d="M708.57 1753.4c-23.47,31.07 75.08,130.75 108.68,101.82 33.64,-28.86 -90.09,-126.33 -108.68,-101.82z"/>
   <path class="fil15" d="M1178.79 1477.4c-176.67,51.68 -427.11,207.39 -439.45,243.98 -12.37,36.74 57.69,122.58 92.55,101.15 34.73,-21.5 253.33,-165.94 421.62,-244.72 192.26,-114.99 600.01,-307.79 954.19,-341.44 -13.13,-49.1 -52.76,-107.27 -133.58,-107.34 -80.8,-0.07 -480.45,92.68 -895.33,348.37z"/>
   <path class="fil15" d="M719.39 1845.72c-88.63,85.4 -186.29,230.36 -189.62,267.02 -3.26,36.59 58.32,98.5 67.3,89.23 38.1,-102.41 184.87,-268.06 215.56,-298.38 -72.77,19.8 -93.24,-57.87 -93.24,-57.87z"/>
   <path class="fil32" d="M931.55 760.93c-451.73,202.23 -662.19,870.56 -396.94,964.35 20.45,-432.44 515.56,-660.44 724.22,-370.09 384.38,-214.02 166.58,-815.49 -327.28,-594.26z"/>
   <path class="fil32" d="M759.07 1711.58c-21.82,32.84 29.89,79.59 67.2,77.74 37.34,-1.9 233.89,-169.24 214.15,-201.34 -19.65,-31.96 -246.31,71.26 -281.35,123.6z"/>
   <path class="fil33" d="M2067.26 2370.78c44.83,0.37 -11.62,80.39 -62.79,113.52 10.06,-15.68 39.01,-48.29 47.37,-80.98 6.9,-26.72 2.35,-32.61 15.42,-32.54z"/>
   <path class="fil33" d="M1608.6 2840.4c-36.67,18.41 -61.86,33.57 -85.27,26.87 -14.69,-4.27 -27.81,-1.84 -24.77,9.86 9.11,34.61 34.33,-4.7 105.74,1.85l4.3 -38.58z"/>
   <path class="fil34" d="M1680.29 2806.16c41.34,40.79 268.89,-137.74 265.69,-238.15 -52.45,83.34 -223.45,220.48 -265.69,238.15z"/>
   <path class="fil0" d="M1974.33 3575.96c-171.49,271.21 242.52,1672.61 652.08,1595.79 327.06,-61.34 195.13,-796.73 131.77,-1033.64l-783.85 -562.15z"/>
   <path class="fil35" d="M1958.75 3566.12c-15.41,24.44 -25.81,55.26 -32.66,91.37 -6.8,36.11 -9.95,77.6 -9.96,123.43 0.02,117.14 20.63,262.79 56.61,416.08 54.02,229.89 142.63,476.56 249.89,667.1 53.68,95.27 111.98,176.58 173.86,234.92 30.95,29.11 62.85,52.55 95.78,68.83 32.89,16.27 66.94,25.39 101.45,25.39 12.01,0 24.07,-1.12 36.08,-3.36 22.13,-4.17 42.55,-11.22 61.16,-20.88 32.58,-16.88 59.45,-41.67 81.06,-71.9 32.43,-45.4 53.44,-102.83 66.64,-167.13 13.18,-64.32 18.46,-135.64 18.47,-209.06 -0.01,-111.95 -12.32,-228.8 -28.6,-332.76 -16.29,-103.94 -36.52,-194.84 -52.57,-254.81l-35.58 9.54c15.65,58.5 35.69,148.42 51.75,250.99 16.06,102.54 28.16,217.81 28.15,327.04 0,54.58 -3.02,107.67 -9.99,156.82 -5.24,36.86 -12.68,71.47 -22.68,102.87 -14.98,47.13 -35.67,86.77 -62.59,116.13 -13.47,14.73 -28.49,26.92 -45.34,36.5 -16.86,9.55 -35.58,16.45 -56.67,20.44 -9.77,1.81 -19.52,2.71 -29.29,2.71 -18.67,0 -37.45,-3.25 -56.46,-9.62 -35.62,-11.97 -72.09,-35.09 -108.28,-67.89 -63.38,-57.37 -125.57,-144.02 -182.4,-247.5 -85.36,-155.28 -158.98,-348.28 -211.03,-537.29 -26.03,-94.51 -46.71,-188.05 -60.85,-275.32 -14.14,-87.32 -21.73,-168.4 -21.72,-237.84 -0.01,-44.13 3.07,-83.52 9.32,-116.61 6.21,-33.08 15.69,-59.77 27.59,-78.51l-31.14 -19.68z"/>
   <path class="fil36" d="M1987.72 4329.88c66.26,339.53 253.31,801.04 457.31,869 95.36,28.75 158.88,24.6 196.67,-24.05 138.19,-177.81 -1.63,-752.57 -66.55,-874.46l-587.43 29.51z"/>
   <path class="fil37" d="M2288.52 5071.74c27.56,6.26 103.37,-26.22 103.37,-26.22 28.19,31.33 49.22,81.6 49.22,81.6 -22.4,23.94 -79.83,20.33 -79.83,20.33 -31.03,-18.23 -72.76,-75.71 -72.76,-75.71z"/>
   <path class="fil38" d="M2056.75 4426.54c21.01,156.63 191.77,505.66 299.28,583 5.04,-156.58 22.5,-364.66 42.37,-437.25 5.42,-87.39 -8.47,-131.4 -8.47,-131.4 -84.76,27.42 -299.28,5.1 -333.18,-14.35z"/>
   <path class="fil37" d="M2167.68 4872.27c53.27,17.03 147.99,5.39 190.35,-8.13 42.33,-13.53 46.35,80.73 9.02,96.89 -37.35,16.13 -142.18,17.08 -143.82,14.36 -31.52,-42.17 -55.55,-103.12 -55.55,-103.12z"/>
   <path class="fil37" d="M2015.96 4452.57c127.43,58.49 363.91,39.89 450.55,6.51 31.76,33.93 -34.45,109.84 -34.45,109.84 -114.9,42.1 -290.51,28.29 -386.56,-10.44 -19.5,-59.62 -29.54,-105.91 -29.54,-105.91z"/>
   <path class="fil37" d="M2079.5 4661.08c134.81,38.52 369.06,-12.59 449.62,-58.66 36.59,28.68 -17.39,113.75 -17.39,113.75 -107.17,59.06 -294.07,66.12 -394.91,42.42 -28.33,-56.06 -37.32,-97.51 -37.32,-97.51z"/>
   <path class="fil39" d="M3968.08 5849.81c-601.02,37.8 -1129.36,-181.6 -1152.43,-286.32 -32.34,-146.8 157.65,-522.34 137.82,-663.55 -19.82,-141.24 -256.5,-386.86 -413.07,-586.08 -156.57,-199.26 -471.3,-558.05 -645.65,-711.02 22.2,-133.88 163.58,-265.73 343.23,-390 342.38,287.2 879.63,-191.93 707.68,-481.99 0,0 190.8,-155.26 449.07,-155.26 207.39,52.2 634.8,511.07 837.42,1124.43 202.65,613.37 500.36,1540.96 495.8,1855.96 -102.83,151.43 -415.91,246.27 -759.87,293.83z"/>
   <path class="fil12" d="M3389.13 2812.13c95.3,230.73 459.14,575.12 588.17,667.36 195.06,264.18 363.72,588.43 355.36,893.33 -8.35,304.91 45.36,700.92 268.7,723.74 39.13,147.21 61.05,326.83 61.05,326.83 -126.87,132.59 -585.1,231.73 -1004.77,221.56 -48.79,-461.05 -268.51,-2832.82 -268.51,-2832.82z"/>
   <path class="fil12" d="M2904.7 5467.91c-38.86,33.77 -32.56,106.98 -29.63,119.71 55.61,64.42 333.11,192.96 554.16,196.03 12.28,-39.89 4.11,-113.59 4.11,-113.59 -181.14,-12.27 -452.94,-107 -528.64,-202.15z"/>
   <path class="fil12" d="M3002.91 4935.25c-18.69,177.4 -105.85,407.33 -97.67,507.59 81.88,100.29 359.97,210.32 570.04,201.61 -4.59,-511.22 -133.56,-1779.81 -133.56,-1779.81 -45.23,510.74 -240.2,930.35 -338.81,1070.61z"/>
   <path class="fil13" d="M3077.69 4955.17c-64.46,165.81 -124.5,445.24 -111.52,497.65 50.22,97.47 348.99,147.54 348.99,147.54 2.01,-246.03 0,-1224.98 0,-1224.98 -10.27,251.27 -150.56,519.14 -237.47,579.79z"/>
   <path class="fil39" d="M1904.55 3563.8c-58.15,163.04 7.34,558.62 16.59,647.23 -25.32,121.13 -2.68,149.31 76.18,173.72 131.64,40.77 519.18,13.61 582.8,-21.38 78.54,-43.07 25.69,-307.14 59.69,-368.91l-735.26 -430.66z"/>
   <path class="fil12" d="M1944.54 3549.32c-86.88,100.8 -12.96,628.73 -12.96,722.04 -39.79,153.36 462.95,92.01 508.71,62.28 5.53,-116.85 41.73,-217.59 -211.58,-555.92 -190.33,-254.13 -284.17,-228.4 -284.17,-228.4z"/>
   <path class="fil12" d="M2190.36 3284.84c-81.17,24.59 -245.87,198.55 -245.82,274.64 0.04,54.03 323.41,292.25 447.35,401.84 123.93,109.6 173.48,306.1 300.69,487.24 127.2,181.13 570.28,-1009.34 603.91,-1092.23 33.62,-82.9 26.09,-722.95 26.09,-722.95 -41.29,-16.13 -258.69,70.9 -258.69,70.9 105.86,332.76 -430.34,917.41 -873.53,580.56z"/>
   <path class="fil13" d="M2176.71 3316.06c-87.66,67.06 -176.65,139.5 -202.38,259.9 98.59,124.96 326.85,260.83 483.3,371.37 156.44,110.53 280.79,460.82 280.79,460.82 204.94,-136.13 444.03,-871.16 498.34,-1048.29 54.31,-177.06 83.56,-562.75 59.73,-651.47 -76.8,-14.94 -209.28,19.59 -209.28,19.59 39.99,493.92 -542.23,865.47 -910.5,588.08z"/>
   <path class="fil5" d="M2821.23 3650.65c-72.17,-25.47 -202.83,-12.58 -269.28,104.69 -66.46,117.3 261.54,492.4 448.86,471.43 187.35,-20.91 181.34,-219.47 117.47,-274.13 -64.01,-54.54 -189.87,-65.1 -183.06,-24.16 6.86,41.06 59.44,105.76 3.81,157.12 -55.59,51.29 -323.54,-155.49 -263.23,-274.66 60.23,-119.2 114.81,-5.72 153.17,-25.66 38.42,-19.85 52.31,-113.36 -7.74,-134.63z"/>
   <path class="fil5" d="M3185.54 3989.93c-82.49,-31.65 -98.29,-156.98 -43.25,-185.68 48.29,-25.14 117.52,27.81 137.06,113.6 13.88,60.94 -53.01,87.71 -93.81,72.08zm-124.26 -247.32c-91.26,28.65 -74.92,185.73 29.06,290.98 76.36,77.43 172.66,127.06 232.14,53.85 86.42,-106.22 -43.89,-413.04 -261.2,-344.83z"/>
   <path class="fil5" d="M3415.99 3909.45c-36.48,-21.26 -122.97,-169.99 -98.08,-194.79 49.59,-49.36 134.72,-26.12 172.6,91.25 15.11,46.76 -13.79,139.2 -74.52,103.54zm31.53 109.89c146.03,-2.89 186.26,-162.69 100.3,-336.99 -73.67,-149.41 -276.9,-197.12 -338.6,-108.8 -57.61,82.32 2.37,152.46 53.64,227.91 79.78,117.11 90.81,219.76 184.66,217.88z"/>
   <path class="fil5" d="M3168.77 3410.07c20.84,43.66 125.97,33.57 262.91,200.71 89.95,109.92 87.36,207.42 126.44,218.63 39,11.26 159.53,-86.12 168.89,-157.6 9.31,-71.45 -72.53,-220.08 -110.24,-212.71 -37.75,7.36 7.91,78.7 10.87,118.34 2.98,39.65 -42.32,121.4 -73.92,94.18 -31.63,-27.3 -142.26,-317.42 -216.23,-344.67 -73.91,-27.31 -180.47,58.39 -168.72,83.12z"/>
   <path class="fil5" d="M3201.44 4387.1c24.67,-21.52 143.22,-64.6 163.49,-41.48 20.27,23.11 62.51,82.43 42.85,120.72 -19.69,38.35 -119.69,88.77 -156.34,46.66 -36.73,-42.09 -65.95,-111.9 -50,-125.9z"/>
   <path class="fil5" d="M3425.06 4303.34c0.47,25.71 41.96,114.94 73.64,125.54 31.57,10.59 150.39,-80.3 143.65,-123.23 -6.85,-42.97 -33.26,-121.85 -75.93,-107.81 -42.69,13.95 -141.87,73.01 -141.36,105.5z"/>
   <path class="fil5" d="M2912.8 4323.41c178.49,168.4 730.14,-89.01 793.08,-424.85 78.23,-19.19 87.36,-80.93 10.21,-81.59 -77.16,-0.76 -80.12,55.7 -60.89,89.35 19.33,33.59 -56.41,222.46 -330.07,360.38 -273.73,137.83 -389.54,62.17 -388.49,27.38 1.01,-34.84 -33.99,-125.51 -93.18,-29.63 -59.18,95.89 45.59,88.26 69.34,58.96z"/>
   <path class="fil12" d="M2409.9 4281.39c44.87,8.64 137.09,18.15 137.09,18.15 -11.29,47.34 -208.84,78.81 -427.2,56.53l290.11 -74.68z"/>
   <path class="fil13" d="M1991.63 3567.56c-103.17,29.39 -41.89,589.94 -41.02,670.86 127.27,39.52 282.7,5.09 309.66,-42.22 -1.99,-193.93 -118,-671.57 -268.64,-628.64z"/>
   <path class="fil13" d="M1950.91 4300.88c1.59,52.66 231.53,72.37 376.38,-6.11 -206.71,-6.74 -378.04,-52.66 -376.38,6.11z"/>
   <path class="fil40" d="M4841.34 3856.21c5.6,134.48 -537.54,92.28 -562.38,-46.43 -24.86,-138.83 554.39,-143.52 562.38,46.43z"/>
   <path class="fil0" d="M3449.98 2638.83c83.85,-78.19 178.68,-17.08 325.35,17.96 304.69,72.81 757.89,103.74 906.54,285.86 106.2,129.94 -9.73,411.1 -205.87,400.35 -213.29,-11.78 -492.32,-75.16 -614.69,-63.68l-411.33 -640.49z"/>
   <path class="fil0" d="M4256.27 3131.42c-90.2,248.39 165.44,1073.43 152.75,1296.88 26.32,122.94 283.16,183.74 317.05,5.83 27.82,-391.06 176.44,-1211.12 -54.29,-1505.1l-415.51 202.39z"/>
   <path class="fil36" d="M4189.36 2706.34c177.63,16.04 441.04,89.22 543.95,224.24 193.28,253.63 117.18,801.61 108.03,925.63 -94.4,-117.03 -484.23,-86.43 -562.38,-46.43 -9.92,-117.71 -69.96,-350.97 -64.68,-442.92 -92.63,7.87 -152.42,-19.51 -152.42,-19.51l127.5 -641.01z"/>
   <path class="fil39" d="M3400.52 2554.31c182.55,-30.7 592.94,104.18 685.47,106.75 92.52,2.5 120.12,1.99 146.3,58.31 26.23,56.24 -28.57,566.95 -110.64,655.36 -36.24,23.63 -68.28,3.46 -107.02,-16.78 -39.85,-20.76 -86.74,-41.6 -152.48,-14.65l-461.63 -788.99z"/>
   <path class="fil12" d="M4103.93 3198.71c-3.18,88.56 -35.55,149.89 -35.55,149.89 48.54,0.52 107.63,-116.4 139,-333.57l-103.45 183.68z"/>
   <path class="fil12" d="M3409.68 2581.41c67.4,-7.15 247.99,21.71 418.16,50.65 154.36,26.28 300.14,52.49 345.14,51.82 86.51,77.08 54.97,473.53 -82.8,567.54 -117.27,24.44 -336.43,-87.39 -529.58,-324.67 -193.16,-237.42 -150.92,-345.34 -150.92,-345.34z"/>
   <path class="fil13" d="M3399.66 2593.11c130.37,-18.92 302.23,12.81 444.01,44.54 116.1,25.99 212.04,52.05 248.43,50.21 47.24,124.63 23.73,396.14 -21.99,425.97 -193.69,9.86 -573.58,-237.14 -670.45,-520.72z"/>
   <path class="fil13" d="M4159.77 2683.44c51.76,9.57 77.62,331.73 -21.92,463 24.74,-205.26 -35.94,-473.67 21.92,-463z"/>
   <path class="fil38" d="M4258.55 2756.48c140.52,17.22 326.03,69.78 413.88,171.9 83.3,96.88 121.24,560.32 36.96,828.2 -199.83,-42.6 -382.33,8.31 -382.33,8.31 -32.77,-110.09 -80.94,-335.75 -54.62,-411.94 26.37,-76.13 187.35,-252.52 187.35,-252.52 -90.49,32.61 -203.33,186.47 -203.33,186.47 -34.01,1.19 -34.01,1.19 -34.01,1.19 46.26,-112.79 40.3,-431.56 36.1,-531.61z"/>
   <path class="fil37" d="M4296.67 2721.29c29.16,109.39 -49.54,557.81 -107.6,646.82 15.96,-1.03 25.21,-1.25 25.21,-1.25 73.42,-36.52 236.48,-466.09 179.28,-623.34 -47.59,-14.95 -96.89,-22.23 -96.89,-22.23z"/>
   <path class="fil37" d="M4256.46 3286.9c79.03,-131.71 255.24,-345.35 271.77,-497.81 54.61,10.89 111.4,58.08 111.4,58.08 2.13,96.59 -282.27,349.48 -396.88,491.71l13.71 -51.98z"/>
   <path class="fil37" d="M4752.15 2957.38c-42.93,57.71 -219.98,104.98 -348.13,216.37 107,-50.51 264,-47.63 404.99,-95.34 -9.41,-48.14 -56.86,-121.03 -56.86,-121.03z"/>
   <path class="fil37" d="M4217.14 3346.46c76.36,-76.41 234.13,-161 621.64,-153.94 10.26,29.3 15.04,94.46 15.04,94.46 -208.54,-3.83 -517.26,25.62 -638.38,124.04 -11.35,-41.08 1.7,-64.56 1.7,-64.56z"/>
   <path class="fil37" d="M4861.78 3397.19c5.53,51.53 1.81,114.84 1.81,114.84 -169.42,-34.23 -533.83,-52.64 -630.17,35.72 0,0 -10.6,-71.65 -13.49,-95.94 79.6,-61.39 443.85,-97.39 641.85,-54.62z"/>
   <path class="fil37" d="M4858.63 3648.25c-206.01,-88.63 -509.22,-77.29 -605.4,-3.56 7.67,41.99 16.78,95.64 16.78,95.64 107.76,-50.46 335.22,-65.21 580.26,18.23 0,0 7.35,-92.47 8.36,-110.31z"/>
   <path class="fil41" d="M4320.98 3715.96c-23.84,9.26 -33.97,-66.6 -19.61,-90.89 14.41,-24.29 260.42,-72.29 428.39,-12.41 5.86,19.32 -21.05,99.67 -21.05,99.67 -150.25,-42.93 -298.32,-31.05 -387.73,3.63z"/>
   <path class="fil41" d="M4275.33 3519.03c-6.22,-21.06 -1.44,-91.81 -1.44,-91.81 90.06,-39.16 325.01,-83.04 482.24,-36.88 -0.47,32.47 -8.76,87.23 -8.76,87.23 -118.09,-21.12 -371.31,-20.24 -472.04,41.46z"/>
   <path class="fil41" d="M4273.99 3365.31c2.61,-33.5 12.19,-61.03 12.19,-61.03 74.66,-87.24 341.91,-128.69 452.99,-107.78 16.92,27.16 7.3,78.99 7.3,78.99 -119.54,-7.88 -342.27,8.83 -472.48,89.82z"/>
   <path class="fil41" d="M4271.97 3132.89c-4.92,17.3 34.58,16.13 60.77,-13.54 26.18,-29.67 72.37,-233.75 69.29,-339.91 -39.82,-21.87 -91.04,-12.96 -91.04,-12.96 -14.24,130.32 -26.94,323.93 -39.02,366.41z"/>
   <path class="fil41" d="M4404.24 3136.42c-46.26,45.06 -27.63,-19.95 25.76,-96.44 53.27,-76.49 83.65,-256.86 176.64,-193.18 71.11,48.67 -185.54,273.14 -202.4,289.62z"/>
   <path class="fil41" d="M4399.07 3170.22c-5.17,-15.84 253.36,-166.76 310.72,-165.28 38.92,37.48 15.34,84.22 15.34,84.22 -81.74,32.69 -323.46,89.08 -326.06,81.06z"/>
   <path class="fil0" d="M4908.79 4779.35c12.24,-49.65 -11.67,-197.22 -56.7,-207.71 -42.18,-9.81 -50.64,96.35 -50.64,96.35 -3.04,55.6 20.97,118.23 20.97,118.23l86.37 -6.87z"/>
   <path class="fil0" d="M4407.72 4370.5c1.26,20.4 -128.51,285.96 -117.63,437.25 6.62,91.39 501.59,47.67 524.09,-66.77 14.21,-72.7 -91.68,-315.25 -91.68,-315.25l-314.78 -55.23z"/>
   <path class="fil0" d="M4289.84 4802.89c0.33,92.9 113.25,419.67 153.86,432.82 97.26,31.39 -25.54,-329.07 -14.46,-385.75l-139.4 -47.07z"/>
   <path class="fil0" d="M4379.25 4834.91c7.88,40.37 103.29,143.77 139.25,155.1 35.95,11.17 133.57,-20.55 120.51,-67.09 -13.02,-46.57 -42.64,-110.33 -42.64,-110.33l-217.12 22.32z"/>
   <path class="fil0" d="M4493.79 4825.58c12.59,39.28 111.19,130.03 148.29,136.93 37.04,6.99 130.33,-36.05 111.84,-80.77 -18.45,-44.55 -55.3,-104.52 -55.3,-104.52l-204.83 48.36z"/>
   <path class="fil0" d="M4601.36 4772.16c11.22,39.79 106.63,133.82 143.41,142.17 36.78,8.15 122.03,-38.48 105.18,-83.8 -16.86,-45.2 -42.18,-99.43 -42.18,-99.43l-206.41 41.06z"/>
   <path class="fil0" d="M4705.03 4727.74c11.31,34.8 99.17,114.92 132.12,121.02 32.8,6.01 61.48,-29.51 69.95,-58.2 15.87,-53.67 -6.99,-136.89 -6.99,-136.89l-195.08 74.07z"/>
   <path class="fil0" d="M4808.28 4671.64c3.76,22.89 5.36,28.87 5.36,28.87 14.32,2.32 41.05,20.14 48.39,30.45l-53.75 -59.32z"/>
   <path class="fil1" d="M4332.66 3827.82c17.47,195.6 86.59,503.91 92.7,543.23 6.11,39.34 145.47,62.13 182.62,13.59 37.14,-48.64 54.43,-536.31 54.43,-536.31 -155.66,-61.55 -310.62,-32.88 -329.75,-20.51z"/>
   <path class="fil1" d="M4434.99 4372.82c-24.64,23.08 -125.15,322.16 -131.81,402.99 -6.62,80.84 91.44,397.07 135.64,443.4 44.12,46.22 13.56,-118.49 -43.48,-302.41 -40.11,-53.61 -49.3,-94.12 -36.35,-103.88 7.56,-5.72 37.05,35.56 73.43,76.82 40.54,46.04 89.66,92.05 126.48,72.92 -43.95,-52.6 -130.9,-149.05 -87.03,-166.74 15.92,-6.44 39.46,33.54 71.51,73.5 34.9,43.58 79.9,87.13 136.07,70.59 -64.75,-64.73 -140.15,-172.48 -96.28,-190.34 10.34,-4.27 37.55,33.92 70.2,72.15 34.97,40.91 76.21,81.81 109.77,70.64 47.75,-15.92 -133.35,-155.57 -83.55,-188.02 17.22,-11.17 40.48,24.56 67.68,60.31 27.16,35.66 58.31,71.32 91.32,60.4 25.07,-8.33 -6.18,-53.68 -36.17,-83.19 -74.65,-73.54 -82.9,-287.98 -198.1,-351.53l-169.33 -17.61z"/>
   <path class="fil42" d="M4406.01 5170.7c1.27,-7.13 35.74,-19.67 45.06,-10.52 9.31,9.08 17.59,60.15 -0.75,68.61 -17.44,8.21 -45.68,-50.88 -44.31,-58.09z"/>
   <path class="fil2" d="M4852.09 4571.64c-25.32,25.5 -13.03,146.44 -4.35,168.66 -28.32,-31.87 -42.96,-66.02 -44.27,-88.87 11.65,-93.58 48.62,-79.79 48.62,-79.79z"/>
   <path class="fil39" d="M2353.86 3111.84c-57.57,-11.56 -150.81,93.27 -147.94,123.53 92.67,159.32 350.58,228.23 647.64,-35.34 297.04,-263.63 217.86,-482.13 186.07,-505.32 -45.61,-27.76 -183.23,28.41 -176.32,63.53 85.2,198.62 -267.3,601.62 -509.45,353.6z"/>
   <path class="fil12" d="M2882.93 2772.52c-13.78,-39.9 100.5,-102.77 132.02,-67.95 53.48,58.97 115.99,374.21 -230.91,603.17 -311.79,205.84 -526.06,-28.27 -529.01,-70.97 -2.89,-42.62 83.45,-146.58 114.71,-103.51 31.16,42.92 127.83,162.25 330.9,21.79 203.05,-140.39 214.15,-290.06 182.29,-382.53z"/>
   <path class="fil13" d="M2364.35 3176.11c195.64,179.11 593.61,-117.21 539.31,-395.34 99.25,-83.63 186.32,157.17 2.11,385.91 -151.83,188.54 -357.96,224.18 -465.27,170.95 -154.59,-76.71 -124.66,-205.99 -76.15,-161.52z"/>
   <path class="fil13" d="M2964.39 5530.87c-21.79,16.89 -21.98,69.84 -10.92,94.91 64.35,69.37 279.26,124.6 356.02,132.31l6.55 -88.03c-92.5,-2.54 -274.6,-67 -351.65,-139.19z"/>
   <path class="fil43" d="M3341.72 10905.97l-82.26 0 0 -2293.83c28.73,-64.39 56.38,-134.87 82.26,-207.91l0 2501.74z"/>
   <path class="fil44" d="M3341.72 5862.72c-2.66,-0.5 -5.31,-1.01 -7.95,-1.47l-74.31 -73.87 0 -3.94c26.57,6.77 54,13.17 82.26,19.21l0 60.07z"/>
   <path class="fil44" d="M3259.46 8612.14l0 -677.88c28.74,-102.22 56.55,-206.81 82.26,-309.97l0 779.94c-25.88,73.04 -53.53,143.52 -82.26,207.91zm82.26 -1947.84c-27.28,-22.71 -55.61,-48.03 -82.26,-76.97l0 -86.23c24.85,14.83 52.69,30.24 82.26,45.83l0 117.37zm-7.95 -803.05c-26.05,-4.93 -50.8,-9.95 -74.31,-15.13l0 -58.74 74.31 73.87z"/>
   <path class="fil37" d="M3259.46 7934.26l0 -734.41c61.88,-286.35 65.53,-375.43 43.14,-402.09 -7.36,-8.75 -23.32,-31.43 -43.14,-63.91l0 -146.52c26.65,28.94 54.98,54.26 82.26,76.97l0 959.99c-25.71,103.16 -53.52,207.75 -82.26,309.97zm82.26 -1387.33c-29.57,-15.59 -57.41,-31 -82.26,-45.83l0 -89.98c26.21,17.61 53.72,34.43 82.26,50.44l0 85.37zm0 -636.72c-28.14,-6.21 -55.63,-12.95 -82.26,-20.18l0 -43.91c23.51,5.18 48.26,10.2 74.31,15.13 2.64,0.46 5.29,0.97 7.95,1.47l0 47.49z"/>
   <path class="fil45" d="M3341.72 6461.56c-28.54,-16.01 -56.05,-32.83 -82.26,-50.44l0 -521.09c26.63,7.23 54.12,13.97 82.26,20.18l0 551.35z"/>
   <path class="fil45" d="M3259.46 7199.85l0 -466c19.82,32.48 35.78,55.16 43.14,63.91 22.39,26.66 18.74,115.74 -43.14,402.09z"/>
   <path class="fil46" d="M3341.72 5802.65c-28.26,-6.04 -55.69,-12.44 -82.26,-19.21l0 -22.14c27.41,6.33 54.97,11.54 82.26,15.34l0 26.01zm0 -144.28c-26.84,-4.81 -54.48,-10.82 -82.26,-17.91l0 -20.4c27.32,6.59 54.91,12.04 82.26,16.17l0 22.14z"/>
   <path class="fil47" d="M3341.72 5776.64c-27.29,-3.8 -54.85,-9.01 -82.26,-15.34l0 -11.18c19.76,3.96 36.92,6.62 50.03,7.97l6.55 -88.03c-16.4,-0.45 -35.62,-2.83 -56.58,-6.88l0 -22.72c27.78,7.09 55.42,13.1 82.26,17.91l0 118.27z"/>
   <path class="fil47" d="M3341.72 5636.23c-27.35,-4.13 -54.94,-9.58 -82.26,-16.17l0 -30.85c33.41,7.42 55.7,11.15 55.7,11.15 1.52,-185.84 0.74,-789.87 0.27,-1074.29 8.76,-1.96 17.66,-4.92 26.29,-8.55l0 1118.71zm-82.26 -985.92l0 -130.18c8.98,6.16 20.17,8.79 32.37,8.79 0.81,0 1.63,0 2.47,-0.04 -9.31,41.64 -21.21,82.48 -34.84,121.43z"/>
   <path class="fil48" d="M3315.16 5600.36c0,0 -22.29,-3.73 -55.7,-11.15l0 -938.9c13.63,-38.95 25.53,-79.79 34.84,-121.43 6.82,-0.18 13.94,-1.15 21.13,-2.81 0.47,284.42 1.25,888.45 -0.27,1074.29z"/>
   <path class="fil47" d="M3259.46 4358.14l0 -17.8c27.44,-9.8 55.01,-21.48 82.26,-34.8l0 33.46c-21.83,0.15 -53.88,8.64 -82.26,19.14z"/>
   <path class="fil46" d="M3259.46 4297.08l0 -174.22c18.1,-1.71 35.1,-8.65 50.28,-22.03 -12.14,66.84 -26.47,131.29 -42.27,192.85 -2.68,1.16 -5.37,2.28 -8.01,3.4zm0 -319.01l0 -112.52c8.6,15.45 15.49,33.01 19.89,52.3 6.15,27.01 -3.59,47.34 -19.89,60.22zm82.26 -168.83c-21.82,-41.56 -35.86,-82.58 -23.81,-94.58 7.26,-7.23 15.29,-12.9 23.81,-16.95l0 111.53zm-82.26 -272.11l0 -71.55c23.93,12.59 51.64,29.37 82.26,54.26l0 11.85c-10.71,-1.62 -21.24,-2.43 -31.45,-2.43 -18.24,0 -35.44,2.57 -50.81,7.87z"/>
   <path class="fil47" d="M3267.47 4293.68c15.8,-61.56 30.13,-126.01 42.27,-192.85 4.41,-3.91 8.66,-8.35 12.74,-13.39 8.45,-10.38 14.82,-22.68 19.24,-36.35l0 207.07c-5.44,2.86 -10.98,5.72 -16.59,8.54 -20.07,10.13 -39.28,19.05 -57.66,26.98z"/>
   <path class="fil45" d="M3259.46 4122.86l0 -144.79c16.3,-12.88 26.04,-33.21 19.89,-60.22 -4.4,-19.29 -11.29,-36.85 -19.89,-52.3l0 -69.09c1.14,1.67 2.27,3.33 3.4,5 35.42,51.97 57.29,101.12 78.86,139.54l0 110.09c-4.42,13.67 -10.79,25.97 -19.24,36.35 -4.08,5.04 -8.33,9.48 -12.74,13.39 -15.18,13.38 -32.18,20.32 -50.28,22.03z"/>
   <path class="fil45" d="M3341.72 3941c-21.57,-38.42 -43.44,-87.57 -78.86,-139.54 -1.13,-1.67 -2.26,-3.33 -3.4,-5l0 -259.33c15.37,-5.3 32.57,-7.87 50.81,-7.87 10.21,0 20.74,0.81 31.45,2.43l0 166.02c-8.52,4.05 -16.55,9.72 -23.81,16.95 -12.05,12 1.99,53.02 23.81,94.58l0 131.76z"/>
   <path class="fil43" d="M3259.46 2589.5l0 -917.23c50.79,-43.43 68.42,-78.55 45.06,-136.64 -10.7,-26.5 -25.99,-51.08 -45.06,-73.91l0 -1355.05 82.26 0 0 2471.05c-28.48,2.36 -55.96,6.41 -82.26,11.78z"/>
   <path class="fil49" d="M3259.46 1672.27l0 -161.88c5.71,4.78 10.63,9.27 14.68,13.54l0 0c-3.55,-9.94 -8.47,-20.1 -14.68,-30.41l0 -31.8c19.07,22.83 34.36,47.41 45.06,73.91 23.36,58.09 5.73,93.21 -45.06,136.64z"/>
   <path class="fil50" d="M3274.14 1523.93c-4.05,-4.27 -8.97,-8.76 -14.68,-13.54l0 -16.87c6.21,10.31 11.13,20.47 14.68,30.41z"/>
   <path class="fil46" d="M3341.72 3328.79c-1.42,-0.73 -2.83,-1.32 -4.23,-1.84 -9.96,-3.68 -20.52,-5.3 -31.3,-5.3 -0.54,0 -1.09,0 -1.66,0 24.3,-157.39 18.05,-688.27 18.05,-688.27 -3.49,-1.4 -8.24,-1.99 -14.03,-1.99 -12.42,0 -29.58,2.87 -49.09,7.44l0 -49.33c26.3,-5.37 53.78,-9.42 82.26,-11.78l0 751.07z"/>
   <path class="fil47" d="M3259.46 3330.41l0 -62.8c39.21,-194.05 57.27,-483.82 37.03,-559.22 -11.33,-2.2 -23.89,-3.3 -37.03,-3.6l0 -65.96c19.51,-4.57 36.67,-7.44 49.09,-7.44 5.79,0 10.54,0.59 14.03,1.99 0,0 6.25,530.88 -18.05,688.27 -14.96,0.22 -30.3,3.53 -45.07,8.76z"/>
   <path class="fil48" d="M3259.46 3267.61l0 -562.82c13.14,0.3 25.7,1.4 37.03,3.6 20.24,75.4 2.18,365.17 -37.03,559.22z"/>
   <path class="fil45" d="M3341.72 3519.84c-30.62,-24.89 -58.33,-41.67 -82.26,-54.26l0 -135.17c14.77,-5.23 30.11,-8.54 45.07,-8.76 0.57,0 1.12,0 1.66,0 10.78,0 21.34,1.62 31.3,5.3 1.4,0.52 2.81,1.11 4.23,1.84l0 191.05z"/>
   <path class="fil45" d="M3291.83 4528.92c-12.2,0 -23.39,-2.63 -32.37,-8.79l0 -161.99c28.38,-10.5 60.43,-18.99 82.26,-19.14l0 178.52c-8.63,3.63 -17.53,6.59 -26.29,8.55 -7.19,1.66 -14.31,2.63 -21.13,2.81 -0.84,0.04 -1.66,0.04 -2.47,0.04z"/>
   <path class="fil45" d="M3259.46 4340.34l0 -43.26c2.64,-1.12 5.33,-2.24 8.01,-3.4 18.38,-7.93 37.59,-16.85 57.66,-26.98 5.61,-2.82 11.15,-5.68 16.59,-8.54l0 47.38c-27.25,13.32 -54.82,25 -82.26,34.8z"/>
   <path class="fil48" d="M3309.49 5758.09c-13.11,-1.35 -30.27,-4.01 -50.03,-7.97l0 -86.94c20.96,4.05 40.18,6.43 56.58,6.88l-6.55 88.03z"/>
   <polygon class="fil51" points="3341.72,10905.97 6739.55,10905.97 6739.55,106.67 3341.72,106.67 "/>
   <path class="fil40" d="M3168.04 4400.01c-55.21,122.73 -528.61,-206.59 -480.78,-339.26 47.85,-132.63 555.45,173.25 480.78,339.26z"/>
   <path class="fil0" d="M2489.87 4641.26c23.31,-354.56 444,-877.71 481.46,-1082.75 50.22,-141.15 310.31,-20.71 280.59,135.51 -29.7,156.12 -150.4,1264.18 -551.53,1447.85l-210.52 -500.61z"/>
   <path class="fil36" d="M2692.58 4046.32c72.95,191.16 320.94,347.73 476.45,347.73 -46.06,290.14 -320.66,849.13 -635.84,817.2 -357.89,-91.84 -137.77,-690.43 159.39,-1164.93z"/>
   <path class="fil38" d="M2713.84 4161.49c-181.14,217.94 -281.67,502.02 -267.47,695.45 14.19,193.43 75.58,310.08 256.75,208.77 212.16,-118.68 327.28,-516.58 349.39,-660.52 -143.68,-33.38 -294.01,-166.88 -338.67,-243.7z"/>
   <path class="fil37" d="M2641.45 4133.42c24.4,171.58 364.53,380.75 504.73,358.35 0,0 -18.2,69.59 -32.52,101.57 -135.79,0 -478.32,-150.83 -522.53,-363.79 11.03,-44.31 50.32,-96.13 50.32,-96.13z"/>
   <path class="fil37" d="M2536.75 4322.36c3.24,105.8 284.57,373.66 542.71,366.54 -17.12,47.49 -43.73,89.84 -43.73,89.84 -119.23,18.12 -476.6,-137.87 -545.86,-355.18 10.82,-40.58 46.88,-101.2 46.88,-101.2z"/>
   <path class="fil37" d="M2456.01 4498.11c3.24,105.78 263.99,384.87 529.79,372.4 -18.84,34.75 -58.73,89.22 -58.73,89.22 -130.29,16.39 -443.13,-137.15 -512.39,-354.49 10.83,-40.58 41.33,-107.13 41.33,-107.13z"/>
   <path class="fil37" d="M2386.64 4694.9c9.17,116.54 259.04,372.54 485.45,338.21 -26.01,36.28 -73.63,74.51 -73.63,74.51 -104.55,17.94 -400.83,-120.26 -431.54,-302.91 1.52,-52.19 19.72,-109.81 19.72,-109.81z"/>
   <path class="fil37" d="M2358.48 4934.56c10.73,133.53 122.05,274.33 208,277.99 57.38,0 103.14,-23.11 103.14,-23.11 -89.32,-10.13 -259.69,-154.27 -311.14,-254.88z"/>
   <path class="fil1" d="M2944.91 3690.95c-65.09,117.82 -207.89,396.42 -207.89,396.42 42.37,97.77 206.59,232.97 276.5,231.53 51.4,-138.98 88,-471.83 88,-471.83 -88,-40.19 -156.61,-156.12 -156.61,-156.12z"/>
   <path class="fil52" d="M3341.72 3809.16l0 -847.07c0,0 78.9,-26.79 135.27,-26.79 17.08,0 32.09,2.43 42.21,8.83 37.48,23.78 15.82,59.33 -34.77,98.73 58.16,-21.14 90.91,-37.63 113.18,-37.63 10.67,0 18.93,3.83 26.45,12.74 23.16,27.46 31.52,111.9 -219.81,283.81 122.32,-55.29 202.93,-111.91 245.47,-111.91 9.4,0 16.94,2.73 22.67,8.91 31.65,33.94 17.83,106.53 -197.11,249.87 38.98,-6.11 82.68,-9.94 120.99,-9.94 55.28,0 99.35,8.02 101.9,28.86 4.32,35.33 2.65,54.1 -213.74,172.15 -36.63,102.67 -142.71,169.44 -142.71,169.44z"/>
   <path class="fil0" d="M2953.39 3675.51c-54.96,-230.84 -22.37,-529.37 118.17,-562.28 118.84,-27.82 408.79,359.26 373.25,463.62 -35.52,104.39 -96.27,251.81 -240.56,270.22l-250.86 -171.56z"/>
   <path class="fil0" d="M3034.63 3130.38c53.02,-68.45 219.69,-186.32 419.9,-203.55 66.21,-5.67 124.39,53.3 0,90.78 -83.08,24.95 -207.58,114.03 -278.57,162.99l-141.33 -50.22z"/>
   <path class="fil0" d="M3143.04 3204.3c66.2,-71.41 260.03,-187.36 399.43,-213.57 65.3,-12.3 120.55,28.13 27.76,99.17 -68.93,52.63 -232.95,161.89 -305.99,207.6l-121.2 -93.2z"/>
   <path class="fil0" d="M3296.49 3356.33c50.8,-34.54 182.7,-124.79 301.63,-171.83 55.73,-22.01 111.57,4.41 41.51,83.04 -52.02,58.46 -202.86,146.28 -268.72,187.51l-74.42 -98.72z"/>
   <path class="fil0" d="M3397.02 3501.8c25.61,-12.88 152.44,-60.29 253.29,-65.59 48.01,-2.58 77.2,37.03 1.6,74.64 -56.19,28.05 -169.9,80.77 -230.71,98.5l-24.18 -107.55z"/>
   <path class="fil1" d="M3034.63 3151.59c-37.82,19 -5.4,109.25 38.8,170.72 49.64,68.99 273.83,303.63 329.36,267.65 91.69,-59.38 -254.67,-495.42 -368.16,-438.37z"/>
   <path class="fil1" d="M3366.29 3528.16c65.34,-40.72 213.59,-75.54 262.51,-78.99 50.03,-3.54 4.57,38.05 -81.2,73.54 -71.36,29.57 -141.39,63.1 -141.39,63.1l-39.92 -57.65z"/>
   <path class="fil1" d="M3286.47 3396.97c20.72,-31.08 101.6,-92.11 161.33,-126.7 59.73,-34.53 173.28,-111.32 194.45,-75.1 18.16,31.07 -82.91,99.31 -142.78,138.49 -59.87,39.08 -176.16,125.44 -176.16,125.44l-36.84 -62.13z"/>
   <path class="fil1" d="M3154.05 3225.43c33.91,-44.83 137.18,-118.75 203.62,-154.16 66.5,-35.48 207.78,-98.06 233.91,-56.54 21.88,34.75 -125.2,104.62 -191.97,145.03 -66.8,40.49 -196.96,130.31 -196.96,130.31l-48.6 -64.64z"/>
   <path class="fil1" d="M3034.05 3150.27c48.58,-68.69 149.01,-129.72 235.94,-167.57 86.93,-37.91 232.59,-70.08 235.99,-29 3.92,47.26 -118.68,63.53 -201.11,109.03 -82.44,45.42 -178.22,110.8 -188.96,136.05l-81.86 -48.51z"/>
   <path class="fil42" d="M3511.56 3013.48c5.83,-15.46 66.82,-29.45 76.89,-4.72 9.47,23.2 -40.23,61.7 -55.84,52.5 -15.59,-9.13 -27.17,-31.51 -21.05,-47.78z"/>
   <path class="fil42" d="M3428.34 2942.15c7.6,-14.73 72.01,-15.24 77.22,7.06 5.68,24.44 -46.87,47.26 -61.84,42.78 -17.31,-5.24 -23.33,-34.46 -15.38,-49.84z"/>
   <path class="fil42" d="M3574.98 3212.47c1.47,-16.49 60.89,-41.37 74.15,-22.67 14.53,20.54 -25.48,61.55 -41.03,63.02 -18.03,1.69 -34.66,-23.04 -33.12,-40.35z"/>
   <path class="fil42" d="M3615.9 3451.67c11.19,-14.65 63.29,-11.71 63.29,3.83 0,15.74 -41.23,37.17 -54.8,27.82 -10.84,-7.51 -14.18,-24.22 -8.49,-31.65z"/>
  </g>
 </g>
</svg>
